<svg id="play_codecast" xmlns="http://www.w3.org/2000/svg" viewBox="0 0 128 128"><defs><style>.cls-1{fill:#6e6e6e;}</style></defs><path class="cls-1" d="M40.36,64.82c0-17.94,10.24-27.93,23-27.93,4.93,0,8.67,1.25,10.36,2.34l-1.94,9.44a17.1,17.1,0,0,0-8-2c-7.56,0-13.42,5.7-13.42,17.4,0,10.53,5,17.16,13.48,17.16a19.48,19.48,0,0,0,7.92-1.72l1.43,9.22L124,62.9,4.13,4,4,124,71.38,89.69a26.47,26.47,0,0,1-9,1.42C47.85,91.11,40.36,79.8,40.36,64.82ZM28.57,81.28a19.53,19.53,0,0,0,7.93-1.72l1.43,9.28c-1.74,1.1-5.68,2.27-10.79,2.27-14.54,0-22-11.31-22-26.29,0-17.94,10.23-27.93,23-27.93,4.93,0,8.68,1.25,10.36,2.34L36.5,48.67a17.14,17.14,0,0,0-8-2c-7.55,0-13.42,5.7-13.42,17.4C15.09,74.65,20.09,81.28,28.57,81.28Z"/><path class="cls-1" d="M71.65,80.52l-1.5.61a9.9,9.9,0,0,0,1.51-.57Z"/></svg>